0
SECTION
2
HEADER
9
$INSUNITS
70
4
9
$ACADVER
1
AC1014
9
$HANDSEED
5
FFFF
0
ENDSEC
0
SECTION
2
TABLES
0
TABLE
2
VPORT
5
8
100
AcDbSymbolTable
0
ENDTAB
0
TABLE
2
LTYPE
5
5
100
AcDbSymbolTable
0
LTYPE
5
14
100
AcDbSymbolTableRecord
100
AcDbLinetypeTableRecord
2
BYBLOCK
70
0
0
LTYPE
5
15
100
AcDbSymbolTableRecord
100
AcDbLinetypeTableRecord
2
BYLAYER
70
0
0
ENDTAB
0
TABLE
2
LAYER
5
2
100
AcDbSymbolTable
70
2
0
LAYER
5
50
100
AcDbSymbolTableRecord
100
AcDbLayerTableRecord
2
0
70
0
6
CONTINUOUS
0
ENDTAB
0
TABLE
2
STYLE
5
3
100
AcDbSymbolTable
70
1
0
STYLE
5
11
100
AcDbSymbolTableRecord
100
AcDbTextStyleTableRecord
2
STANDARD
70
0
0
ENDTAB
0
TABLE
2
VIEW
5
6
100
AcDbSymbolTable
70
0
0
ENDTAB
0
TABLE
2
UCS
5
7
100
AcDbSymbolTable
70
0
0
ENDTAB
0
TABLE
2
APPID
5
9
100
AcDbSymbolTable
70
2
0
APPID
5
12
100
AcDbSymbolTableRecord
100
AcDbRegAppTableRecord
2
ACAD
70
0
0
ENDTAB
0
TABLE
2
DIMSTYLE
5
A
100
AcDbSymbolTable
70
1
0
ENDTAB
0
TABLE
2
BLOCK_RECORD
5
1
100
AcDbSymbolTable
70
1
0
BLOCK_RECORD
5
1F
100
AcDbSymbolTableRecord
100
AcDbBlockTableRecord
2
*MODEL_SPACE
0
BLOCK_RECORD
5
1B
100
AcDbSymbolTableRecord
100
AcDbBlockTableRecord
2
*PAPER_SPACE
0
ENDTAB
0
ENDSEC
0
SECTION
2
BLOCKS
0
BLOCK
5
20
100
AcDbEntity
100
AcDbBlockBegin
2
*MODEL_SPACE
0
ENDBLK
5
21
100
AcDbEntity
100
AcDbBlockEnd
0
BLOCK
5
1C
100
AcDbEntity
100
AcDbBlockBegin
2
*PAPER_SPACE
0
ENDBLK
5
1D
100
AcDbEntity
100
AcDbBlockEnd
0
ENDSEC
0
SECTION
2
ENTITIES
0
LINE
5
100
100
AcDbEntity
8
0
100
AcDbLine
10
0
20
0
30
0
11
457.19999999999999
21
0
31
0
0
LINE
5
101
100
AcDbEntity
8
0
100
AcDbLine
10
0
20
0
30
0
11
457.19999999999999
21
0
31
0
0
LINE
5
102
100
AcDbEntity
8
0
100
AcDbLine
10
457.19999999999999
20
0
30
0
11
457.19999999999999
21
-63.499999999999986
31
0
0
LINE
5
103
100
AcDbEntity
8
0
100
AcDbLine
10
0
20
-63.499999999999986
30
0
11
0
21
0
31
0
0
LINE
5
104
100
AcDbEntity
8
0
100
AcDbLine
10
146.04999999999998
20
-113.49999999999997
30
0
11
146.04999999999998
21
-228.59999999999999
31
0
0
LINE
5
105
100
AcDbEntity
8
0
100
AcDbLine
10
311.15000000000003
20
-113.49999999999997
30
0
11
311.15000000000003
21
-228.59999999999999
31
0
0
LINE
5
106
100
AcDbEntity
8
0
100
AcDbLine
10
457.19999999999999
20
-278.60000000000002
30
0
11
457.19999999999999
21
-457.19999999999999
31
0
0
LINE
5
107
100
AcDbEntity
8
0
100
AcDbLine
10
146.04999999999998
20
-228.59999999999999
30
0
11
50.000000000000036
21
-228.59999999999999
31
0
0
LINE
5
108
100
AcDbEntity
8
0
100
AcDbLine
10
8.8817841970012523e-15
20
-278.60000000000002
30
0
11
0
21
-457.19999999999999
31
0
0
LINE
5
109
100
AcDbEntity
8
0
100
AcDbLine
10
0
20
-457.19999999999999
30
0
11
8.8817841970012523e-15
21
-278.60000000000002
31
0
0
LINE
5
110
100
AcDbEntity
8
0
100
AcDbLine
10
0
20
-63.499999999999986
30
0
11
0
21
0
31
0
0
LINE
5
111
100
AcDbEntity
8
0
100
AcDbLine
10
457.19999999999999
20
0
30
0
11
457.19999999999999
21
-63.499999999999986
31
0
0
LINE
5
112
100
AcDbEntity
8
0
100
AcDbLine
10
457.19999999999999
20
-278.60000000000002
30
0
11
457.19999999999999
21
-457.19999999999999
31
0
0
ARC
5
113
100
AcDbEntity
8
0
100
AcDbCircle
10
49.999999999999972
20
-278.59999999999997
30
0
40
49.999999999999964
100
AcDbArc
50
89.999999999999929
51
180
0
ARC
5
114
100
AcDbEntity
8
0
100
AcDbCircle
10
407.19999999999999
20
-278.60000000000002
30
0
40
50
100
AcDbArc
50
0
51
90
0
LINE
5
115
100
AcDbEntity
8
0
100
AcDbLine
10
457.19999999999999
20
-63.499999999999986
30
0
11
361.15000000000003
21
-63.499999999999979
31
0
0
LINE
5
116
100
AcDbEntity
8
0
100
AcDbLine
10
96.050000000000011
20
-63.5
30
0
11
0
21
-63.499999999999986
31
0
0
ARC
5
117
100
AcDbEntity
8
0
100
AcDbCircle
10
96.05000000000004
20
-113.49999999999994
30
0
40
49.999999999999943
100
AcDbArc
50
0
51
90.000000000000043
0
ARC
5
118
100
AcDbEntity
8
0
100
AcDbCircle
10
361.15000000000003
20
-113.49999999999997
30
0
40
50
100
AcDbArc
50
90
51
180
0
LINE
5
119
100
AcDbEntity
8
0
100
AcDbLine
10
457.19999999999999
20
-457.19999999999999
30
0
11
407.19999999999999
21
-457.19999999999999
31
0
0
LINE
5
120
100
AcDbEntity
8
0
100
AcDbLine
10
457.19999999999999
20
-278.60000000000002
30
0
11
457.19999999999999
21
-457.19999999999999
31
0
0
LINE
5
121
100
AcDbEntity
8
0
100
AcDbLine
10
0
20
-457.19999999999999
30
0
11
50
21
-457.19999999999999
31
0
0
LINE
5
122
100
AcDbEntity
8
0
100
AcDbLine
10
8.8817841970012523e-15
20
-278.60000000000002
30
0
11
0
21
-457.19999999999999
31
0
0
LINE
5
123
100
AcDbEntity
8
0
100
AcDbLine
10
114.3
20
-457.19999999999999
30
0
11
164.30000000000001
21
-457.19999999999999
31
0
0
LINE
5
124
100
AcDbEntity
8
0
100
AcDbLine
10
164.30000000000001
20
-457.19999999999999
30
0
11
164.30000000000004
21
-278.59999999999997
31
0
0
LINE
5
125
100
AcDbEntity
8
0
100
AcDbLine
10
114.3
20
-278.59999999999997
30
0
11
114.3
21
-457.19999999999999
31
0
0
LINE
5
126
100
AcDbEntity
8
0
100
AcDbLine
10
342.89999999999998
20
-457.19999999999999
30
0
11
292.89999999999998
21
-457.19999999999999
31
0
0
LINE
5
127
100
AcDbEntity
8
0
100
AcDbLine
10
292.89999999999998
20
-457.19999999999999
30
0
11
292.89999999999998
21
-278.60000000000002
31
0
0
LINE
5
128
100
AcDbEntity
8
0
100
AcDbLine
10
342.89999999999998
20
-278.60000000000002
30
0
11
342.89999999999998
21
-457.19999999999999
31
0
0
LINE
5
129
100
AcDbEntity
8
0
100
AcDbLine
10
0
20
-457.19999999999999
30
0
11
50
21
-457.19999999999999
31
0
0
LINE
5
130
100
AcDbEntity
8
0
100
AcDbLine
10
114.3
20
-457.19999999999999
30
0
11
164.30000000000001
21
-457.19999999999999
31
0
0
LINE
5
131
100
AcDbEntity
8
0
100
AcDbLine
10
292.89999999999998
20
-457.19999999999999
30
0
11
342.89999999999998
21
-457.19999999999999
31
0
0
LINE
5
132
100
AcDbEntity
8
0
100
AcDbLine
10
407.19999999999999
20
-457.19999999999999
30
0
11
457.19999999999999
21
-457.19999999999999
31
0
0
LINE
5
133
100
AcDbEntity
8
0
100
AcDbLine
10
164.30000000000004
20
-278.59999999999997
30
0
11
292.89999999999998
21
-278.60000000000002
31
0
0
LINE
5
134
100
AcDbEntity
8
0
100
AcDbLine
10
114.3
20
-278.59999999999997
30
0
11
69.999999999999972
21
-278.59999999999997
31
0
0
LINE
5
135
100
AcDbEntity
8
0
100
AcDbLine
10
49.999999999999986
20
-298.59999999999991
30
0
11
50
21
-457.19999999999999
31
0
0
ARC
5
136
100
AcDbEntity
8
0
100
AcDbCircle
10
69.999999999999943
20
-298.59999999999991
30
0
40
19.999999999999964
100
AcDbArc
50
89.999999999999929
51
180
0
LINE
5
137
100
AcDbEntity
8
0
100
AcDbLine
10
342.89999999999998
20
-278.60000000000002
30
0
11
387.19999999999999
21
-278.60000000000002
31
0
0
LINE
5
138
100
AcDbEntity
8
0
100
AcDbLine
10
407.19999999999999
20
-298.60000000000002
30
0
11
407.19999999999999
21
-457.19999999999999
31
0
0
ARC
5
139
100
AcDbEntity
8
0
100
AcDbCircle
10
387.19999999999999
20
-298.60000000000002
30
0
40
20
100
AcDbArc
50
0
51
90
0
LWPOLYLINE
5
140
100
AcDbEntity
8
0
100
AcDbPolyline
90
4
70
1
43
0.0
10
165.10000000000002
20
-247.24999999999997
10
190.5
20
-247.24999999999997
10
190.5
20
-259.94999999999999
10
165.10000000000002
20
-259.94999999999999
0
LWPOLYLINE
5
141
100
AcDbEntity
8
0
100
AcDbPolyline
90
4
70
1
43
0.0
10
292.09999999999997
20
-247.24999999999997
10
266.69999999999999
20
-247.24999999999997
10
266.69999999999999
20
-259.94999999999999
10
292.09999999999997
20
-259.94999999999999
0
LINE
5
142
100
AcDbEntity
8
0
100
AcDbLine
10
407.19999999999999
20
-228.59999999999999
30
0
11
311.15000000000003
21
-228.59999999999999
31
0
0
ENDSEC
0
SECTION
2
OBJECTS
0
DICTIONARY
5
C
100
AcDbDictionary
3
ACAD_GROUP
350
D
3
ACAD_MLINESTYLE
350
17
0
DICTIONARY
5
D
100
AcDbDictionary
0
DICTIONARY
5
1A
330
C
100
AcDbDictionary
0
DICTIONARY
5
17
100
AcDbDictionary
0
ENDSEC
0
EOF
